<svg xmlns="http://www.w3.org/2000/svg" xmlns:xlink="http://www.w3.org/1999/xlink" viewBox="0 0 97.3 35">
    <defs>
        <linearGradient id="a" x1="6.318" y1="25.46" x2="25.811" y2="25.46" gradientUnits="userSpaceOnUse" gradientTransform="matrix(.9979 0 0 .9979 0 -1.821)">
            <stop stop-color="#41C4FA"/>
            <stop offset=".05" stop-color="#49B1FA"/>
            <stop offset=".15" stop-color="#5891FA"/>
            <stop offset=".26" stop-color="#6576FA"/>
            <stop offset=".38" stop-color="#6E61FA"/>
            <stop offset=".51" stop-color="#7552FA"/>
            <stop offset=".67" stop-color="#7949FA"/>
            <stop offset=".92" stop-color="#7B47FB"/>
        </linearGradient>
    </defs>
    <path d="M0 8.096h5.36s5.963 12.672 5.995 12.728c0 0-1.999 3.515-5.353.033L0 8.096Z" fill="#41c4fa" style="stroke-width:.997908" transform="matrix(1.03366 0 0 1.03366 0 -.894)"/>
    <path d="M10.027 26.362c2.766.735 4.3-.681 5.003-2 .08-.152.972-1.915 1.718-3.754-2.831 3.72-5.143.844-5.392.217 0 0-2.074 3.525-5.38-.022.018.044.052.099.07.143.883 1.864 1.546 3.28 1.615 3.415.778 1.525 2.236 1.966 2.366 2Z" fill="url(#a)" style="fill:url(#a);stroke-width:.997908" transform="matrix(1.03366 0 0 1.03366 0 -.894)"/>
    <path d="M16.694 20.733c-2.825 3.51-5.084.752-5.343.092l5.996-12.718h5.343l-5.996 12.626Z" fill="#e900cc" style="stroke-width:.997908" transform="matrix(1.03366 0 0 1.03366 0 -.894)"/>
    <path d="M32.326 7.07c-5.38 0-9.743 4.367-9.743 9.752 0 5.386 4.362 9.752 9.743 9.752 5.38 0 9.742-4.366 9.742-9.752 0-5.385-4.362-9.752-9.742-9.752Zm0 15.073a5.318 5.318 0 0 1-5.316-5.32c0-2.94 2.38-5.322 5.316-5.322a5.318 5.318 0 0 1 5.315 5.321c0 2.939-2.38 5.321-5.315 5.321ZM54.498 13.327h4.636s-.169-5.136-5.544-6.004c0 0-6.36-1.02-8.518 2.454-.038 0-2.234 2.982 0 6.023 0-.037 1.135 1.719 5.3 2.55 0 .037 5.186.83 4.202 3.209-.076.415-1.893 2.266-4.846.718 0 0-.908-.416-1.287-1.964h-4.808s.353 2.853 2.424 4.443c.116.089.23.18.344.27.487.386 2.381 1.773 6.166 1.518 1.51-.102 3.106-.43 4.354-1.284 1.115-.764 2.188-2.166 2.347-3.776-.014.106.58-2.742-2.283-4.74.024.038-.745-.736-5.629-1.944 0-.064-2.372-.424-2.613-1.873a1.418 1.418 0 0 1 .538-1.336c.664-.524 2.87-.945 4.309-.001 0 .038.757.34.908 1.737ZM59.311 7.628h5.455l4.866 13 4.224-13h5.276l-6.9 18.95s-2.562 8.908-10.096 7.998v-4.662s3.805.341 4.86-3.639c0-.075-7.685-18.647-7.685-18.647ZM88.151 7.293c-4.978 0-9.014 4.043-9.014 9.032V26.46h4.725V16.306a4.293 4.293 0 0 1 4.29-4.298 4.293 4.293 0 0 1 4.288 4.298V26.46h4.726V16.325c0-4.989-4.036-9.032-9.015-9.032Z" fill="#ffffff" style="stroke-width:.997908"/>
</svg>
